<svg width="224" height="56" viewBox="0 0 224 56" fill="none" xmlns="http://www.w3.org/2000/svg">
<path d="M85.514 13.1579V23.8819H83.834V18.2259H77.478V23.8819H75.798V13.1579H77.478V16.7559H83.834V13.1579H85.514Z" fill="#222222"/>
<path d="M92.606 20.0039H89.946C89.078 20.0039 88.658 20.3679 88.658 21.0959V21.3619C88.658 22.0899 89.078 22.4399 89.946 22.4399H92.606C93.474 22.4399 93.922 22.0899 93.922 21.3619V21.0959C93.922 20.3679 93.474 20.0039 92.606 20.0039ZM89.54 23.8819C88.756 23.8819 88.126 23.6719 87.678 23.2239C87.202 22.7899 86.978 22.2299 86.978 21.5299V20.9559C86.978 20.2559 87.202 19.6959 87.678 19.2479C88.126 18.7999 88.756 18.5759 89.54 18.5759H93.922V18.5339C93.922 17.6799 93.446 17.2459 92.508 17.2459H87.636V15.8179H92.48C93.488 15.8179 94.258 16.0839 94.79 16.5879C95.322 17.0919 95.602 17.8059 95.602 18.7439V21.5859C95.602 22.3139 95.35 22.8879 94.86 23.3079C94.412 23.6999 93.782 23.8819 92.97 23.8819H89.54Z" fill="#222222"/>
<path d="M100.512 15.8179H102.164C103.2 15.8179 104.026 16.1259 104.628 16.7279C105.216 17.3439 105.524 18.1839 105.524 19.2619V23.8819H103.844V19.3459C103.844 18.6739 103.704 18.1839 103.452 17.8759C103.116 17.4839 102.654 17.2739 102.038 17.2739H100.61C100.008 17.2739 99.5462 17.4839 99.2102 17.8759C98.9582 18.1839 98.8462 18.6739 98.8462 19.3459V23.8819H97.1662V19.2619C97.1662 18.1839 97.4602 17.3439 98.0622 16.7279C98.6502 16.1259 99.4762 15.8179 100.512 15.8179Z" fill="#222222"/>
<path d="M113.268 22.8039C112.666 23.5319 111.924 23.8819 111.042 23.8819H110.006C109.068 23.8819 108.326 23.5879 107.78 22.9999C107.248 22.4539 106.996 21.6699 106.996 20.6619V15.8179H108.662V20.6759C108.662 21.2639 108.788 21.6979 109.04 21.9639C109.32 22.2719 109.698 22.4259 110.174 22.4259H110.902C111.378 22.4259 111.756 22.2719 112.05 21.9639C112.302 21.6979 112.442 21.2639 112.442 20.6759V15.8179H114.094V20.6759C114.094 21.2639 114.22 21.6979 114.472 21.9639C114.752 22.2719 115.13 22.4259 115.606 22.4259H116.334C116.81 22.4259 117.188 22.2719 117.482 21.9639C117.734 21.6979 117.874 21.2639 117.874 20.6759V15.8179H119.54V20.6619C119.54 21.6699 119.26 22.4539 118.728 22.9999C118.168 23.5879 117.426 23.8819 116.488 23.8819H115.466C114.598 23.8819 113.856 23.5319 113.268 22.8039Z" fill="#222222"/>
<path d="M124.468 17.2739C123.866 17.2739 123.404 17.4839 123.068 17.8759C122.816 18.1839 122.704 18.6739 122.704 19.3459V23.8819H121.024V13.1299H122.704V16.3079C123.18 15.9859 123.74 15.8179 124.37 15.8179H126.022C127.058 15.8179 127.884 16.1259 128.486 16.7279C129.074 17.3439 129.382 18.1839 129.382 19.2619V23.8819H127.702V19.3459C127.702 18.6739 127.562 18.1839 127.31 17.8759C126.974 17.4839 126.512 17.2739 125.896 17.2739H124.468Z" fill="#222222"/>
<path d="M136.397 20.0039H133.737C132.869 20.0039 132.449 20.3679 132.449 21.0959V21.3619C132.449 22.0899 132.869 22.4399 133.737 22.4399H136.397C137.265 22.4399 137.713 22.0899 137.713 21.3619V21.0959C137.713 20.3679 137.265 20.0039 136.397 20.0039ZM133.331 23.8819C132.547 23.8819 131.917 23.6719 131.469 23.2239C130.993 22.7899 130.769 22.2299 130.769 21.5299V20.9559C130.769 20.2559 130.993 19.6959 131.469 19.2479C131.917 18.7999 132.547 18.5759 133.331 18.5759H137.713V18.5339C137.713 17.6799 137.237 17.2459 136.299 17.2459H131.427V15.8179H136.271C137.279 15.8179 138.049 16.0839 138.581 16.5879C139.113 17.0919 139.393 17.8059 139.393 18.7439V21.5859C139.393 22.3139 139.141 22.8879 138.651 23.3079C138.203 23.6999 137.573 23.8819 136.761 23.8819H133.331Z" fill="#222222"/>
<path d="M84.8 32.1579V33.6139H79.018C77.954 33.6139 77.422 34.0199 77.422 34.8179V35.5459C77.422 36.3439 77.94 36.7359 79.004 36.7359H82.112C83.148 36.7359 83.932 36.9739 84.464 37.4359C85.024 37.9259 85.304 38.5559 85.304 39.3259V40.3199C85.304 41.0899 85.024 41.7199 84.464 42.1959C83.932 42.6579 83.148 42.8819 82.098 42.8819H76.134V41.4259H82.014C83.078 41.4259 83.61 41.0339 83.61 40.2359V39.3819C83.61 38.5839 83.078 38.1779 82.014 38.1779H78.906C77.856 38.1779 77.072 37.9539 76.554 37.4919C75.994 37.0159 75.728 36.3859 75.728 35.6159V34.7479C75.728 33.9779 75.994 33.3479 76.554 32.8579C77.072 32.3959 77.856 32.1579 78.906 32.1579H84.8Z" fill="#222222"/>
<path d="M95.3846 42.8819H90.0226C89.0146 42.8819 88.2306 42.5879 87.6706 42.0139C87.0966 41.4539 86.8166 40.6559 86.8166 39.6059V38.1219C86.8166 37.0719 87.0966 36.2599 87.6706 35.6999C88.2306 35.1399 89.0146 34.8459 90.0226 34.8179H95.3846V36.2739H90.1626C89.5606 36.2739 89.1126 36.4699 88.8326 36.8339C88.6086 37.1419 88.5106 37.6039 88.5106 38.2059V39.5219C88.5106 40.1239 88.6086 40.5719 88.8326 40.8799C89.1126 41.2439 89.5606 41.4259 90.1626 41.4259H95.3846V42.8819Z" fill="#222222"/>
<path d="M97.0327 42.8819V34.8179H98.7407V42.8819H97.0327ZM98.9927 33.1939C98.9927 33.5019 98.8807 33.7539 98.6707 33.9359C98.4467 34.1319 98.1807 34.2159 97.8727 34.2159C97.5647 34.2159 97.3127 34.1319 97.1167 33.9359C96.8927 33.7539 96.7947 33.5019 96.7947 33.1939C96.7947 32.8859 96.8927 32.6339 97.1167 32.4379C97.3127 32.2559 97.5647 32.1579 97.8727 32.1579C98.1807 32.1579 98.4467 32.2559 98.6707 32.4379C98.8807 32.6339 98.9927 32.8859 98.9927 33.1939Z" fill="#222222"/>
<path d="M103.361 38.6819H106.035C106.903 38.6819 107.337 38.3319 107.337 37.6039V37.3379C107.337 36.6099 106.903 36.2459 106.035 36.2459H103.361C102.493 36.2459 102.073 36.6099 102.073 37.3379V37.6039C102.073 38.3319 102.493 38.6819 103.361 38.6819ZM109.017 37.1979V37.7579C109.017 38.4579 108.779 39.0179 108.303 39.4519C107.841 39.8999 107.225 40.1099 106.441 40.1099H102.073V40.1659C102.073 41.0199 102.535 41.4399 103.487 41.4399H108.639V42.8819H103.501C102.493 42.8819 101.723 42.6299 101.191 42.1259C100.659 41.6359 100.393 40.9219 100.393 39.9839V37.1979C100.393 36.4979 100.617 35.9379 101.093 35.4899C101.541 35.0419 102.171 34.8179 102.969 34.8179H106.427C107.211 34.8179 107.841 35.0419 108.303 35.4899C108.779 35.9379 109.017 36.4979 109.017 37.1979Z" fill="#222222"/>
<path d="M113.815 34.8179H115.467C116.503 34.8179 117.329 35.1259 117.931 35.7279C118.519 36.3439 118.827 37.1839 118.827 38.2619V42.8819H117.147V38.3459C117.147 37.6739 117.007 37.1839 116.755 36.8759C116.419 36.4839 115.957 36.2739 115.341 36.2739H113.913C113.311 36.2739 112.849 36.4839 112.513 36.8759C112.261 37.1839 112.149 37.6739 112.149 38.3459V42.8819H110.469V38.2619C110.469 37.1839 110.763 36.3439 111.365 35.7279C111.953 35.1259 112.779 34.8179 113.815 34.8179Z" fill="#222222"/>
<path d="M128.894 42.8819H123.532C122.524 42.8819 121.74 42.5879 121.18 42.0139C120.606 41.4539 120.326 40.6559 120.326 39.6059V38.1219C120.326 37.0719 120.606 36.2599 121.18 35.6999C121.74 35.1399 122.524 34.8459 123.532 34.8179H128.894V36.2739H123.672C123.07 36.2739 122.622 36.4699 122.342 36.8339C122.118 37.1419 122.02 37.6039 122.02 38.2059V39.5219C122.02 40.1239 122.118 40.5719 122.342 40.8799C122.622 41.2439 123.07 41.4259 123.672 41.4259H128.894V42.8819Z" fill="#222222"/>
<path d="M133.371 38.6819H136.045C136.913 38.6819 137.347 38.3319 137.347 37.6039V37.3379C137.347 36.6099 136.913 36.2459 136.045 36.2459H133.371C132.503 36.2459 132.083 36.6099 132.083 37.3379V37.6039C132.083 38.3319 132.503 38.6819 133.371 38.6819ZM139.027 37.1979V37.7579C139.027 38.4579 138.789 39.0179 138.313 39.4519C137.851 39.8999 137.235 40.1099 136.451 40.1099H132.083V40.1659C132.083 41.0199 132.545 41.4399 133.497 41.4399H138.649V42.8819H133.511C132.503 42.8819 131.733 42.6299 131.201 42.1259C130.669 41.6359 130.403 40.9219 130.403 39.9839V37.1979C130.403 36.4979 130.627 35.9379 131.103 35.4899C131.551 35.0419 132.181 34.8179 132.979 34.8179H136.437C137.221 34.8179 137.851 35.0419 138.313 35.4899C138.789 35.9379 139.027 36.4979 139.027 37.1979Z" fill="#222222"/>
<path d="M144.623 38.8919V36.1759C144.623 34.9859 145.001 34.0059 145.757 33.2359C146.443 32.5219 147.437 32.1579 148.753 32.1579H154.493V33.6139H148.823C148.025 33.6139 147.395 33.8799 146.919 34.3979C146.499 34.8739 146.303 35.4899 146.317 36.2459V38.8079C146.303 39.5639 146.499 40.1659 146.919 40.6419C147.395 41.1739 148.025 41.4259 148.823 41.4259H154.493V42.8819H148.753C147.437 42.8819 146.443 42.5319 145.757 41.8179C145.001 41.0479 144.623 40.0679 144.623 38.8919Z" fill="#222222"/>
<path d="M159.468 36.2739C158.866 36.2739 158.404 36.4839 158.068 36.8759C157.816 37.1839 157.704 37.6739 157.704 38.3459V42.8819H156.024V32.1299H157.704V35.3079C158.18 34.9859 158.74 34.8179 159.37 34.8179H161.022C162.058 34.8179 162.884 35.1259 163.486 35.7279C164.074 36.3439 164.382 37.1839 164.382 38.2619V42.8819H162.702V38.3459C162.702 37.6739 162.562 37.1839 162.31 36.8759C161.974 36.4839 161.512 36.2739 160.896 36.2739H159.468Z" fill="#222222"/>
<path d="M171.397 39.0039H168.737C167.869 39.0039 167.449 39.3679 167.449 40.0959V40.3619C167.449 41.0899 167.869 41.4399 168.737 41.4399H171.397C172.265 41.4399 172.713 41.0899 172.713 40.3619V40.0959C172.713 39.3679 172.265 39.0039 171.397 39.0039ZM168.331 42.8819C167.547 42.8819 166.917 42.6719 166.469 42.2239C165.993 41.7899 165.769 41.2299 165.769 40.5299V39.9559C165.769 39.2559 165.993 38.6959 166.469 38.2479C166.917 37.7999 167.547 37.5759 168.331 37.5759H172.713V37.5339C172.713 36.6799 172.237 36.2459 171.299 36.2459H166.427V34.8179H171.271C172.279 34.8179 173.049 35.0839 173.581 35.5879C174.113 36.0919 174.393 36.8059 174.393 37.7439V40.5859C174.393 41.3139 174.141 41.8879 173.651 42.3079C173.203 42.6999 172.573 42.8819 171.761 42.8819H168.331Z" fill="#222222"/>
<path d="M176.097 42.8819V32.1299H177.805V42.8819H176.097Z" fill="#222222"/>
<path d="M179.597 42.8819V32.1299H181.305V42.8819H179.597Z" fill="#222222"/>
<path d="M185.925 38.6819H188.599C189.467 38.6819 189.901 38.3319 189.901 37.6039V37.3379C189.901 36.6099 189.467 36.2459 188.599 36.2459H185.925C185.057 36.2459 184.637 36.6099 184.637 37.3379V37.6039C184.637 38.3319 185.057 38.6819 185.925 38.6819ZM191.581 37.1979V37.7579C191.581 38.4579 191.343 39.0179 190.867 39.4519C190.405 39.8999 189.789 40.1099 189.005 40.1099H184.637V40.1659C184.637 41.0199 185.099 41.4399 186.051 41.4399H191.203V42.8819H186.065C185.057 42.8819 184.287 42.6299 183.755 42.1259C183.223 41.6359 182.957 40.9219 182.957 39.9839V37.1979C182.957 36.4979 183.181 35.9379 183.657 35.4899C184.105 35.0419 184.735 34.8179 185.533 34.8179H188.991C189.775 34.8179 190.405 35.0419 190.867 35.4899C191.343 35.9379 191.581 36.4979 191.581 37.1979Z" fill="#222222"/>
<path d="M196.379 34.8179H198.031C199.067 34.8179 199.893 35.1259 200.495 35.7279C201.083 36.3439 201.391 37.1839 201.391 38.2619V42.8819H199.711V38.3459C199.711 37.6739 199.571 37.1839 199.319 36.8759C198.983 36.4839 198.521 36.2739 197.905 36.2739H196.477C195.875 36.2739 195.413 36.4839 195.077 36.8759C194.825 37.1839 194.713 37.6739 194.713 38.3459V42.8819H193.033V38.2619C193.033 37.1839 193.327 36.3439 193.929 35.7279C194.517 35.1259 195.343 34.8179 196.379 34.8179Z" fill="#222222"/>
<path d="M211.515 38.1079V42.8679C211.515 43.8339 211.249 44.5479 210.731 45.0099C210.227 45.4999 209.443 45.7519 208.379 45.7519H203.647V44.2959H208.421C209.359 44.2959 209.835 43.8899 209.835 43.0499V42.4899C209.527 42.7559 209.023 42.8819 208.323 42.8819H206.097C205.103 42.8819 204.319 42.6019 203.745 42.0139C203.171 41.4539 202.891 40.6419 202.891 39.6059V38.1079C202.891 37.0719 203.171 36.2599 203.745 35.6859C204.319 35.1119 205.103 34.8179 206.097 34.8179H208.295C209.275 34.8179 210.059 35.1119 210.647 35.6859C211.221 36.2739 211.515 37.0719 211.515 38.1079ZM209.835 39.5219V38.2059C209.835 37.6039 209.723 37.1419 209.499 36.8339C209.205 36.4699 208.771 36.2739 208.183 36.2739H206.209C205.621 36.2739 205.187 36.4699 204.907 36.8339C204.683 37.1419 204.571 37.6039 204.571 38.2059V39.5219C204.571 40.1239 204.683 40.5719 204.907 40.8799C205.187 41.2439 205.621 41.4259 206.209 41.4259H208.183C208.771 41.4259 209.205 41.2439 209.499 40.8799C209.723 40.5719 209.835 40.1239 209.835 39.5219Z" fill="#222222"/>
<path d="M215.935 38.6819H218.609C219.477 38.6819 219.911 38.3319 219.911 37.6039V37.3379C219.911 36.6099 219.477 36.2459 218.609 36.2459H215.935C215.067 36.2459 214.647 36.6099 214.647 37.3379V37.6039C214.647 38.3319 215.067 38.6819 215.935 38.6819ZM221.591 37.1979V37.7579C221.591 38.4579 221.353 39.0179 220.877 39.4519C220.415 39.8999 219.799 40.1099 219.015 40.1099H214.647V40.1659C214.647 41.0199 215.109 41.4399 216.061 41.4399H221.213V42.8819H216.075C215.067 42.8819 214.297 42.6299 213.765 42.1259C213.233 41.6359 212.967 40.9219 212.967 39.9839V37.1979C212.967 36.4979 213.191 35.9379 213.667 35.4899C214.115 35.0419 214.745 34.8179 215.543 34.8179H219.001C219.785 34.8179 220.415 35.0419 220.877 35.4899C221.353 35.9379 221.591 36.4979 221.591 37.1979Z" fill="#222222"/>
<g clip-path="url(#clip0_2219_2056)">
<path d="M53.2941 17.7303L47.942 12.0802L53.8773 22.8069L47.4856 12.3402L51.042 24.0586L46.9806 12.5037L48.0068 24.6992L46.4541 12.5573L44.9041 24.6992L45.9302 12.5037L41.8689 24.0586L45.4279 12.3402L39.0389 22.8069L44.9716 12.0802L36.5276 20.9977L44.58 11.7291L34.451 18.7087L44.2668 11.3056L32.8983 16.0444L44.0534 10.8285L31.9397 13.1148L43.94 10.3139L31.6129 10.0512L43.94 9.78854L31.9397 6.99028L44.0534 9.2766L32.8983 4.06069L44.2668 8.79682L34.4564 1.39913L44.5854 8.37869L38.9417 1.88695C36.001 0.672761 32.7768 0 29.3932 0C20.852 0 13.318 4.26708 8.82735 10.7642C11.1497 10.9706 13.5719 12.4581 13.5719 12.4581C13.5719 12.4581 9.91829 10.8312 8.11986 11.8443C7.6959 12.5332 7.30435 13.2435 6.9479 13.9752C6.76158 16.5885 9.58345 20.3088 16.3208 24.785C23.9763 29.8695 32.9847 31.6117 35.8228 28.776C38.3719 26.2296 33.0144 23.0106 33.0144 23.0106C37.7832 25.0905 39.1955 27.5859 38.0317 29.7784C36.8381 32.0218 30.5382 33.4638 21.4056 28.8778C15.4243 25.8705 8.20357 21.2389 5.68684 17.1031C4.90104 19.5101 4.47168 22.0725 4.47168 24.7367C4.47168 38.3956 15.6295 49.4707 29.3932 49.4707C43.1569 49.4707 54.3121 38.3956 54.3121 24.7367C54.3121 22.303 53.9502 19.955 53.2941 17.7357V17.7303Z" fill="url(#paint0_radial_2219_2056)"/>
<path d="M10.3042 27.8918C10.3042 17.4278 18.8481 8.94727 29.393 8.94727C39.9379 8.94727 48.4791 17.4278 48.4791 27.8918C48.4791 38.3558 39.9352 46.8363 29.393 46.8363C18.8508 46.8363 10.3042 38.3558 10.3042 27.8918Z" fill="url(#paint1_radial_2219_2056)"/>
<path d="M11.4007 33.9355C11.4007 33.9355 12.8642 25.0636 17.3846 18.2154C21.0166 12.7127 27.9673 5.64737 32.6092 7.3869C37.8776 9.35694 32.909 16.7895 32.909 16.7895C32.909 16.7895 35.8685 10.7587 31.4967 9.75362C27.7891 8.8986 17.1983 14.664 11.3979 33.9382L11.4007 33.9355Z" fill="white"/>
<path d="M46.554 6.81113C46.4838 6.74412 46.411 6.67443 46.3408 6.60742L46.4595 7.5509L46.554 6.81113Z" fill="url(#paint2_radial_2219_2056)"/>
<path d="M45.8107 6.13505C45.6245 5.97423 45.4411 5.80805 45.2495 5.65527L45.9348 7.60387L45.8107 6.13505Z" fill="url(#paint3_radial_2219_2056)"/>
<path d="M47.0859 7.31749C47.0616 7.29336 47.0401 7.26924 47.0131 7.24512L46.9834 7.60428L47.0859 7.31749Z" fill="url(#paint4_radial_2219_2056)"/>
<path d="M47.4963 7.74866C47.4963 7.74866 47.4963 7.74316 47.4908 7.74316L47.4854 7.76513L47.4963 7.74866Z" fill="url(#paint5_radial_2219_2056)"/>
<path d="M44.6501 5.18356C44.1883 4.82976 43.7212 4.48668 43.2324 4.16504L45.4332 7.76471L44.6501 5.18356Z" fill="url(#paint6_radial_2219_2056)"/>
<path d="M49.2515 9.79666C49.2354 9.77508 49.2219 9.75889 49.2057 9.7373L48.9683 9.79396L49.2515 9.79936V9.79666Z" fill="url(#paint7_radial_2219_2056)"/>
<path d="M49.7669 10.5013C49.721 10.437 49.6751 10.3727 49.6293 10.3057L48.9683 10.3137L49.7669 10.4986V10.5013Z" fill="url(#paint8_radial_2219_2056)"/>
<path d="M51.6144 13.5464C51.3876 13.1042 51.15 12.6726 50.8988 12.2438L48.644 11.3057L51.6144 13.5464Z" fill="url(#paint9_radial_2219_2056)"/>
<path d="M42.6249 3.77957C41.569 3.12021 40.4592 2.5359 39.3062 2.04004L44.9769 8.02788L42.6249 3.77957Z" fill="url(#paint10_radial_2219_2056)"/>
<path d="M50.5017 11.5976C50.391 11.4234 50.2802 11.2465 50.1641 11.075L48.8599 10.8311L50.5017 11.6003V11.5976Z" fill="url(#paint11_radial_2219_2056)"/>
<path d="M53.159 17.2824C52.8242 16.2317 52.4164 15.2105 51.952 14.2241L48.3335 11.7314L53.159 17.2851V17.2824Z" fill="url(#paint12_radial_2219_2056)"/>
<path d="M5.68701 17.0983C6.03806 16.0234 6.45931 14.9808 6.94808 13.9757C6.99128 13.3619 7.19651 12.8071 7.55836 12.3219C7.70958 12.1182 7.904 11.9654 8.12003 11.8448C8.34416 11.4776 8.58179 11.1185 8.82752 10.7646" fill="white"/>
<path d="M13.5716 12.4586C13.5716 12.4586 11.1494 10.971 8.82712 10.7646C8.58139 11.1185 8.34646 11.4776 8.11963 11.8448C9.91806 10.829 13.5716 12.4586 13.5716 12.4586Z" fill="white"/>
<path d="M21.4058 28.8753C30.5357 33.4613 36.8383 32.0193 38.0318 29.7758C39.1984 27.586 37.7834 25.088 33.0146 23.008C33.0146 23.008 38.3721 26.2271 35.8229 28.7734C32.9849 31.6119 23.9765 29.867 16.321 24.7824C9.58362 20.3063 6.76445 16.586 6.94808 13.9727C6.45931 14.9778 6.03806 16.0231 5.68701 17.0952C8.20374 21.231 15.4245 25.8626 21.4058 28.8699V28.8753Z" fill="white"/>
<path d="M34.4562 1.39941L44.272 8.80247L32.9035 4.06634L44.0587 9.28225L31.9449 6.99593L43.9453 9.79419L31.6182 10.0569L43.9453 10.3195L31.9449 13.1205L44.0587 10.8342L32.9035 16.0501L44.272 11.3112L34.4562 18.7143L44.5853 11.7347L36.5328 21.0033L44.9768 12.0859L39.0441 22.8125L45.4332 12.3459L41.8741 24.0642L45.9354 12.5094L44.9093 24.7048L46.4593 12.563L48.012 24.7048L46.9859 12.5094L51.0472 24.0642L47.4908 12.3459L53.8826 22.8125L47.9472 12.0859L53.2993 17.736C53.2534 17.5859 53.2102 17.4358 53.167 17.2884L48.3414 11.7347L51.9599 14.2274C51.8519 13.9996 51.7358 13.7745 51.6224 13.552L48.652 11.3112L50.9068 12.2494C50.7772 12.0323 50.6448 11.8152 50.5071 11.6007L48.8653 10.8315L50.1696 11.0754C50.04 10.8824 49.9077 10.6921 49.7726 10.5045L48.9733 10.3195L49.6349 10.3115C49.5107 10.1399 49.3865 9.96841 49.2569 9.79955L48.9733 9.79419L49.211 9.7379C48.6763 9.04638 48.1038 8.38166 47.5016 7.7491L47.4908 7.76518L47.4962 7.74374C47.3612 7.60168 47.2262 7.45694 47.0885 7.31757L46.9859 7.60436L47.0156 7.2452C46.8671 7.0951 46.7077 6.95304 46.5538 6.80831L46.4593 7.54808L46.3405 6.6046C46.165 6.44646 45.9894 6.291 45.8139 6.13286L45.9381 7.60168L45.2522 5.65309C45.0551 5.49227 44.8553 5.33681 44.6528 5.18403L45.4359 7.76518L43.2351 4.16551C43.0353 4.03149 42.8327 3.90552 42.6248 3.77686L44.9768 8.02517L39.3061 2.03733C39.1873 1.9864 39.0657 1.9328 38.9442 1.88455L44.588 8.3763L34.4562 1.39941Z" fill="white"/>
<path d="M24.1411 22.2011C24.2383 21.8688 24.1114 21.5632 24.1114 21.5632C23.8225 20.6251 22.2508 20.1534 20.5955 20.5072C18.9402 20.8637 17.8331 21.909 18.122 22.8498C18.4082 23.7906 19.8367 24.4794 21.6055 24.0104C21.808 23.9568 22.024 23.8978 22.2725 23.7799C22.2725 23.7799 23.0042 23.4448 22.7774 22.7989C22.5479 22.1368 21.5353 22.3941 21.5353 22.3941C21.5353 22.3941 20.6684 22.6246 20.2796 22.5764C20.2796 22.5764 19.6234 22.5335 19.402 21.8929C19.2508 21.1826 20.4551 20.8422 20.4551 20.8422C20.4551 20.8422 22.0537 20.4348 23.088 20.7913C23.088 20.7913 24.3517 21.0968 24.1438 22.2065L24.1411 22.2011Z" fill="white"/>
<path d="M18.0084 29.837C17.9274 30.1399 17.6141 30.3222 17.3063 30.2418C17.0012 30.1614 16.8175 29.8504 16.8985 29.5476C16.9823 29.242 17.2928 29.0624 17.5979 29.1402C17.9031 29.2179 18.0867 29.5315 18.0057 29.837H18.0084Z" fill="white"/>
<path d="M32.8958 18.0736C32.8148 18.3792 32.5016 18.5615 32.1964 18.4784C31.8913 18.4006 31.7077 18.087 31.7887 17.7842C31.8697 17.4813 32.1829 17.3017 32.4908 17.3794C32.7959 17.4598 32.9795 17.7708 32.8958 18.0736Z" fill="white"/>
<path d="M15.2946 13.2836C15.2136 13.5891 14.9003 13.7714 14.5925 13.691C14.2874 13.6106 14.1064 13.2997 14.1847 12.9968C14.2658 12.6912 14.579 12.5117 14.8868 12.5894C15.1893 12.6698 15.3783 12.9807 15.2946 13.2836Z" fill="white"/>
<path d="M26.2012 21.5525C28.7774 26.9748 27.5433 38.988 23.9113 39.3284C19.1425 39.7733 17.5547 31.1668 17.5547 31.1668C17.5952 33.6541 19.6367 42.4161 24.5972 41.0706C27.2057 40.5024 28.2346 36.0262 28.4803 33.3834C28.7287 30.7433 28.4992 25.2701 26.1985 21.5498L26.2012 21.5525Z" fill="white"/>
<path d="M4.89034 36.0667L1.18816 37.3667L0.982928 36.7904L2.93528 36.1043L2.15758 33.9252L0.205227 34.6113L0 34.0351L3.70218 32.7324L3.90741 33.3087L2.66525 33.7456L3.44295 35.9247L4.68511 35.4878L4.89034 36.0641V36.0667Z" fill="#1D1D1B"/>
<path d="M1.97642 38.9852C1.8441 38.7306 1.80629 38.492 1.8765 38.2722C1.93861 38.0444 2.08173 37.8809 2.30856 37.763L2.49488 37.6665C2.72171 37.5485 2.94314 37.5271 3.16997 37.6075C3.3914 37.6772 3.56962 37.8434 3.70194 38.0953L4.44184 39.5105L4.45534 39.5052C4.73347 39.3631 4.79288 39.1353 4.63626 38.8324L3.81536 37.2591L4.27982 37.0205L5.09802 38.5858C5.26814 38.9128 5.31135 39.205 5.23574 39.4596C5.16013 39.7142 4.97651 39.926 4.67137 40.0841L3.74515 40.5585C3.50751 40.6792 3.27798 40.6952 3.05926 40.6068C2.85673 40.5264 2.69201 40.3548 2.55429 40.0922L1.97642 38.9852ZM3.75595 39.3256L3.30769 38.4679C3.16187 38.1865 2.97285 38.1114 2.73521 38.2347L2.6488 38.2803C2.41117 38.4009 2.36797 38.5965 2.51379 38.878L2.96204 39.7384C3.10786 40.0198 3.29689 40.1056 3.53452 39.9823L3.62093 39.9367C3.85856 39.8161 3.90177 39.6097 3.75325 39.3283L3.75595 39.3256Z" fill="#1D1D1B"/>
<path d="M6.58329 41.0195L6.92894 41.5127C7.14497 41.821 7.22598 42.1346 7.16927 42.4374C7.10716 42.7403 6.91814 43.0083 6.59409 43.2308L5.20341 44.1877L4.85237 43.6865L6.21874 42.7457C6.42127 42.6063 6.54009 42.4642 6.58059 42.3249C6.6292 42.1426 6.59409 41.963 6.46718 41.7781L6.16744 41.3519C6.04052 41.1723 5.8812 41.0785 5.69488 41.0597C5.54906 41.049 5.37893 41.116 5.17641 41.2554L3.81003 42.1962L3.45898 41.6923L4.84967 40.7354C5.17371 40.513 5.48965 40.4245 5.80019 40.4781C6.10533 40.529 6.36996 40.7113 6.58599 41.0222L6.58329 41.0195Z" fill="#1D1D1B"/>
<path d="M7.6013 46.3112C7.25565 46.3354 6.97481 46.2281 6.75338 45.995L6.49145 45.7216C6.25382 45.475 6.14581 45.2043 6.16471 44.9148C6.17551 44.636 6.31863 44.3734 6.58866 44.1214L7.87403 42.9072L8.29529 43.3468L7.00452 44.5663C6.8479 44.7138 6.76419 44.8558 6.75879 44.9898C6.74798 45.1399 6.80199 45.2793 6.92351 45.4053L7.10713 45.5983C7.22865 45.7242 7.36366 45.7832 7.52029 45.7832C7.6553 45.7832 7.80652 45.7108 7.96044 45.5634L9.25121 44.3466L9.66706 44.7808L8.3763 45.9976C8.21968 46.1451 8.13597 46.2871 8.13056 46.4211C8.11976 46.5712 8.17377 46.7106 8.29529 46.8366L8.47891 47.0296C8.59773 47.1555 8.73544 47.2145 8.89206 47.2172C9.02708 47.2172 9.1756 47.1448 9.33222 46.9974L10.623 45.7805L11.0442 46.2201L9.75888 47.4343C9.49154 47.6862 9.21341 47.8095 8.93257 47.8069C8.63553 47.8069 8.3709 47.6836 8.13327 47.437L7.87403 47.1689C7.6553 46.9411 7.56079 46.657 7.604 46.3193L7.6013 46.3112Z" fill="#1D1D1B"/>
<path d="M12.1002 47.6566C11.9247 47.5226 11.7438 47.4824 11.5602 47.5199C11.4171 47.552 11.2766 47.67 11.1254 47.863L10.1128 49.171L9.62402 48.7984L12.0246 45.6973L12.5134 46.0698L11.8032 46.9865C12.0138 46.9999 12.2137 47.0749 12.3973 47.2143L12.8779 47.5815C13.1777 47.8094 13.3505 48.0828 13.391 48.391C13.4234 48.6992 13.3262 49.0101 13.0859 49.3211L12.0543 50.6532L11.5656 50.2806L12.5782 48.9726C12.7294 48.7796 12.7969 48.6054 12.7915 48.4607C12.7807 48.2731 12.6943 48.1096 12.5161 47.9729L12.1002 47.6566Z" fill="#1D1D1B"/>
<path d="M13.5479 51.5779C13.2994 51.4358 13.1374 51.2535 13.078 51.0311C13.0078 50.8086 13.0375 50.5888 13.1671 50.369L13.2724 50.1895C13.4021 49.9697 13.5749 49.833 13.8071 49.7794C14.0312 49.7204 14.2716 49.7633 14.52 49.9053L15.9107 50.7041L15.9188 50.6907C16.0754 50.4226 16.0052 50.1975 15.7055 50.026L14.1609 49.1388L14.4228 48.6885L15.9593 49.5703C16.2779 49.7526 16.4751 49.9777 16.5507 50.2323C16.6263 50.487 16.5858 50.763 16.413 51.0606L15.8918 51.9558C15.7595 52.1863 15.5731 52.3203 15.3409 52.3632C15.1276 52.4061 14.8927 52.3471 14.6361 52.1997L13.5479 51.5752V51.5779ZM15.2329 50.9158L14.3877 50.4307C14.1123 50.2725 13.9124 50.3101 13.7774 50.5406L13.7288 50.6237C13.5965 50.8542 13.664 51.0391 13.9394 51.1973L14.7846 51.6824C15.0601 51.8405 15.2653 51.8111 15.4003 51.5832L15.4489 51.5001C15.5812 51.2696 15.5083 51.074 15.2329 50.9158Z" fill="#1D1D1B"/>
<path d="M20.4067 53.486C20.3527 53.6254 20.2717 53.7513 20.1637 53.8585C20.0557 53.9658 19.9207 54.0488 19.764 54.1025C19.6101 54.1587 19.4346 54.1855 19.2348 54.1802C19.0376 54.1748 18.8216 54.1293 18.5867 54.0435C18.4787 54.0033 18.3761 53.9577 18.2788 53.9068C18.1816 53.8559 18.0871 53.7996 17.998 53.7406C17.9089 53.6816 17.8252 53.6146 17.7442 53.5423C17.6632 53.4699 17.5876 53.3895 17.5146 53.3064L17.9008 52.9633C17.971 53.0384 18.0385 53.1081 18.1114 53.1724C18.1816 53.2367 18.2545 53.2957 18.3275 53.3493C18.4004 53.4029 18.476 53.4511 18.5489 53.4913C18.6245 53.5315 18.6974 53.5664 18.7757 53.5959C18.8891 53.6388 18.9971 53.6629 19.0944 53.6709C19.1943 53.679 19.2834 53.6709 19.3644 53.6495C19.4454 53.6254 19.5129 53.5878 19.5696 53.5315C19.6263 53.4779 19.6695 53.4082 19.6992 53.3278C19.7208 53.2689 19.7289 53.2099 19.7262 53.1483C19.7208 53.0893 19.7046 53.0276 19.6776 52.9687C19.6479 52.9124 19.6074 52.8534 19.5507 52.7945C19.4967 52.7355 19.4265 52.6792 19.3428 52.6256L18.9917 52.3817C18.8648 52.2906 18.7568 52.1967 18.6731 52.1003C18.5894 52.0038 18.5246 51.9046 18.4787 51.8054C18.4382 51.7036 18.4166 51.599 18.4166 51.4918C18.4166 51.3846 18.4355 51.2747 18.4787 51.1648C18.5327 51.0254 18.611 50.9048 18.7136 50.8057C18.8189 50.7065 18.9404 50.6288 19.0809 50.5778C19.2213 50.5296 19.3779 50.5081 19.548 50.5135C19.7181 50.5189 19.8964 50.5537 20.08 50.6234C20.296 50.7038 20.4877 50.8057 20.6579 50.9263C20.828 51.0496 20.9765 51.1943 21.1007 51.3605L20.6876 51.658C20.5633 51.5159 20.4391 51.398 20.3122 51.3015C20.1853 51.205 20.0557 51.1327 19.9261 51.0871C19.837 51.0549 19.7532 51.0335 19.6695 51.0281C19.5885 51.0201 19.5129 51.0281 19.4427 51.0496C19.3779 51.071 19.3185 51.1058 19.2672 51.1514C19.2159 51.197 19.1781 51.2533 19.1511 51.323C19.1295 51.3792 19.1241 51.4329 19.1349 51.4891C19.1457 51.5454 19.1646 51.5963 19.197 51.6446C19.2294 51.6928 19.2699 51.7411 19.3212 51.7893C19.3725 51.8376 19.4265 51.8805 19.4832 51.9207L19.8721 52.1941C20.0071 52.2879 20.1178 52.3844 20.2069 52.4862C20.296 52.5881 20.3635 52.6926 20.4094 52.8025C20.4526 52.9124 20.4715 53.0223 20.4715 53.1349C20.4715 53.2474 20.4472 53.3654 20.4013 53.4833L20.4067 53.486Z" fill="#1D1D1B"/>
<path d="M23.3582 55.1236C23.1854 55.1879 23.0071 55.2254 22.8235 55.2308C22.6399 55.2388 22.4536 55.2174 22.2591 55.1664C22.0296 55.1075 21.8271 55.0163 21.6516 54.8877C21.476 54.7617 21.3356 54.6036 21.2303 54.4186C21.125 54.2337 21.0602 54.0219 21.0332 53.7834C21.0062 53.5449 21.0305 53.2849 21.1034 53.0034C21.179 52.7139 21.287 52.4674 21.4301 52.2583C21.5732 52.0492 21.738 51.883 21.927 51.7598C22.1133 51.6365 22.3158 51.556 22.5373 51.5239C22.7587 51.489 22.9828 51.5024 23.2124 51.5614C23.4041 51.6097 23.5715 51.6767 23.7146 51.7624C23.855 51.8482 23.9739 51.9501 24.0684 52.0707L23.6876 52.3762C23.6093 52.2905 23.5202 52.2181 23.423 52.1591C23.3258 52.0975 23.2178 52.0546 23.1016 52.0224C22.9558 51.9849 22.8127 51.9769 22.6777 51.9983C22.5427 52.0197 22.4158 52.076 22.305 52.1618C22.1916 52.2529 22.089 52.3735 21.9999 52.529C21.9081 52.6818 21.8352 52.8774 21.7731 53.1106C21.7137 53.3411 21.684 53.5448 21.684 53.7271C21.684 53.9094 21.7137 54.0648 21.7731 54.2015C21.8298 54.3355 21.9135 54.4454 22.0269 54.5339C22.1403 54.6223 22.2807 54.6867 22.4455 54.7296C22.5697 54.7617 22.6912 54.7724 22.8127 54.7644C22.9342 54.7564 23.053 54.7296 23.1718 54.6867L23.3663 55.1236H23.3582Z" fill="#1D1D1B"/>
<path d="M25.1455 52.5106L24.6918 55.0944C24.6756 55.1802 24.6648 55.2633 24.6567 55.341C24.6486 55.4187 24.6405 55.5018 24.6324 55.5876L23.9492 55.4696C23.9708 55.3839 23.9924 55.3035 24.0086 55.2284C24.0275 55.1534 24.0437 55.0703 24.0599 54.9845L24.5136 52.4007C24.5271 52.3176 24.5406 52.2372 24.5487 52.1621C24.5568 52.0844 24.5649 52.0067 24.573 51.9209L25.2562 52.0388C25.2346 52.1219 25.2157 52.1996 25.1968 52.2747C25.1779 52.3497 25.1617 52.4275 25.1482 52.5106H25.1455Z" fill="#1D1D1B"/>
<path d="M25.645 55.7484C25.6639 55.6519 25.6801 55.5634 25.6909 55.483C25.7017 55.3999 25.7125 55.3115 25.7233 55.215L25.9637 52.7169C25.9745 52.6178 25.9799 52.524 25.9853 52.4382C25.9907 52.3524 25.9934 52.2613 25.9907 52.1621L27.6271 52.3176C27.7243 52.3256 27.808 52.3337 27.8809 52.339C27.9538 52.3444 28.0375 52.3471 28.1374 52.3471L28.0267 52.8644C27.9349 52.8429 27.8539 52.8295 27.7864 52.8215C27.7189 52.8161 27.6379 52.8081 27.5407 52.7973L26.5901 52.7062L26.4956 53.6872L27.1842 53.7515C27.2814 53.7596 27.3705 53.7676 27.4516 53.7757C27.5326 53.781 27.619 53.7837 27.7162 53.7837L27.6649 54.3117C27.5677 54.293 27.4813 54.2796 27.4029 54.2715C27.3246 54.2635 27.2355 54.2528 27.1383 54.2447L26.4578 54.1804L26.3498 55.3008L27.2571 55.3865C27.3732 55.3973 27.4813 55.408 27.5785 55.4133C27.6757 55.4187 27.7837 55.4241 27.9025 55.4294L27.8512 55.9762C27.7351 55.9574 27.6271 55.944 27.5299 55.9306C27.4327 55.9172 27.3246 55.9065 27.2085 55.8958L25.6477 55.7484H25.645Z" fill="#1D1D1B"/>
<path d="M30.8487 55.1133C30.8379 54.9659 30.8244 54.7621 30.8082 54.5048C30.7893 54.2448 30.7785 54.0787 30.7731 54.009L30.7515 52.8457C30.7515 52.7599 30.7461 52.6822 30.7407 52.6045C30.7353 52.5268 30.7272 52.4463 30.7191 52.3633L31.351 52.3525C31.3456 52.4356 31.3402 52.5187 31.3375 52.5938C31.3348 52.6715 31.3321 52.7519 31.3348 52.835L31.3834 55.4135C31.3834 55.5126 31.3888 55.6038 31.3942 55.6869C31.3996 55.7673 31.405 55.8584 31.4131 55.9549L30.7353 55.9683L29.8334 54.2904C29.7011 54.0438 29.5903 53.8267 29.5012 53.6391C29.4121 53.4541 29.3392 53.3014 29.2879 53.1888C29.2933 53.3201 29.3041 53.5158 29.3176 53.7758C29.3311 54.0358 29.3392 54.1939 29.3446 54.2502L29.3689 55.5126C29.3689 55.5957 29.3743 55.6788 29.3824 55.7539C29.3878 55.8289 29.3959 55.9093 29.404 55.9951L28.7613 56.0058C28.7667 55.92 28.7721 55.8396 28.7748 55.7646C28.7775 55.6869 28.7802 55.6064 28.7775 55.5234L28.7289 52.9074C28.7289 52.8162 28.7235 52.7358 28.7181 52.6608C28.7127 52.5884 28.7073 52.5026 28.6992 52.4061L29.4283 52.3927L30.4058 54.135C30.5004 54.3011 30.5868 54.4727 30.6651 54.6442C30.7434 54.8158 30.8082 54.9766 30.8541 55.1213L30.8487 55.1133Z" fill="#1D1D1B"/>
<path d="M34.983 55.263C34.848 55.389 34.6967 55.4882 34.5293 55.5632C34.3619 55.6383 34.181 55.6892 33.9838 55.7133C33.7489 55.7455 33.5275 55.7348 33.3169 55.6812C33.1062 55.6302 32.9172 55.5364 32.7498 55.4051C32.5824 55.2738 32.4392 55.1022 32.3258 54.8905C32.2097 54.6787 32.1341 54.4295 32.0936 54.14C32.0531 53.8452 32.0612 53.5744 32.1125 53.3279C32.1665 53.0813 32.2556 52.8642 32.3852 52.6819C32.5094 52.4969 32.6688 52.3495 32.8605 52.2343C33.0522 52.119 33.2655 52.0467 33.5005 52.0172C33.6976 51.9904 33.8785 51.9904 34.0405 52.0172C34.2053 52.044 34.3511 52.0949 34.4861 52.1699L34.2485 52.5934C34.1432 52.5452 34.0351 52.5103 33.9217 52.4916C33.8083 52.4728 33.6922 52.4701 33.5707 52.4862C33.4195 52.505 33.2871 52.5532 33.1683 52.6229C33.0495 52.6926 32.955 52.7918 32.8848 52.9151C32.8146 53.0411 32.766 53.1938 32.739 53.3707C32.7147 53.5476 32.7174 53.7567 32.7498 53.9952C32.7822 54.2311 32.8335 54.4321 32.901 54.5983C32.9685 54.7672 33.0576 54.9012 33.1629 55.0031C33.2655 55.1049 33.3844 55.1773 33.5248 55.2175C33.6625 55.2577 33.8164 55.2657 33.9865 55.2416C34.1135 55.2255 34.2323 55.1907 34.3403 55.1371C34.4483 55.0861 34.5509 55.0165 34.6427 54.9307L34.9884 55.263H34.983Z" fill="#1D1D1B"/>
<path d="M35.7312 55.362C35.7177 55.2655 35.7042 55.1771 35.688 55.094C35.6718 55.0136 35.6529 54.9251 35.6286 54.8313L35.0318 52.3922C35.0075 52.2957 34.9832 52.2046 34.9616 52.1215C34.9373 52.0384 34.9103 51.9527 34.8779 51.8589L36.4738 51.4756C36.5684 51.4514 36.6521 51.4327 36.7223 51.4139C36.7925 51.3952 36.8735 51.371 36.9653 51.3389L37.0301 51.8642C36.9356 51.8749 36.8546 51.8857 36.7898 51.9017C36.725 51.9178 36.644 51.9366 36.5494 51.958L35.6205 52.1805L35.8555 53.1374L36.5278 52.9765C36.6224 52.9524 36.7088 52.931 36.7871 52.9122C36.8654 52.8908 36.9491 52.8667 37.0382 52.8345L37.1651 53.3491C37.0679 53.3625 36.9815 53.3786 36.9032 53.3947C36.8249 53.4108 36.7385 53.4322 36.644 53.4536L35.9797 53.6145L36.247 54.708L37.1327 54.4963C37.2488 54.4695 37.3515 54.4427 37.446 54.4159C37.5405 54.3891 37.6431 54.3596 37.7565 54.3274L37.8861 54.8608C37.77 54.8823 37.6647 54.9037 37.5675 54.9225C37.473 54.9412 37.3677 54.9653 37.2515 54.9948L35.7285 55.362H35.7312Z" fill="#1D1D1B"/>
<path d="M42.3063 52.947C42.2064 53.1025 42.0849 53.2365 41.9418 53.3517C41.7987 53.467 41.6366 53.5608 41.453 53.6332C41.2343 53.7216 41.0156 53.7672 40.7995 53.7699C40.5808 53.7699 40.3756 53.7297 40.1784 53.6439C39.984 53.5581 39.8031 53.4268 39.6357 53.2499C39.471 53.073 39.3332 52.8505 39.2225 52.5825C39.1091 52.3064 39.047 52.0437 39.0362 51.7918C39.0254 51.5398 39.0578 51.3093 39.1361 51.0976C39.209 50.8885 39.3251 50.7036 39.4818 50.5454C39.6384 50.3873 39.8274 50.264 40.0461 50.1756C40.2298 50.1005 40.4053 50.0549 40.57 50.0389C40.7347 50.0228 40.8913 50.0362 41.0399 50.0764L40.9183 50.5481C40.8049 50.5267 40.6888 50.5213 40.5754 50.5294C40.4593 50.5374 40.3459 50.5669 40.2352 50.6125C40.0947 50.6687 39.9759 50.7465 39.8814 50.8456C39.7842 50.9421 39.7194 51.0601 39.6789 51.1994C39.6411 51.3388 39.633 51.4996 39.6546 51.6765C39.6762 51.8534 39.7302 52.0545 39.822 52.2769C39.9138 52.4967 40.0137 52.679 40.1217 52.8237C40.2298 52.9685 40.3486 53.0783 40.4782 53.1507C40.6024 53.2258 40.7374 53.2633 40.8805 53.2687C41.0237 53.2713 41.1749 53.2418 41.3342 53.1775C41.453 53.1293 41.5583 53.0676 41.6501 52.9872C41.742 52.9095 41.823 52.8184 41.8905 52.7111L42.309 52.947H42.3063Z" fill="#1D1D1B"/>
<path d="M43.7781 50.0179L43.3109 49.1763C43.2704 49.1012 43.2272 49.0342 43.1867 48.9672C43.1462 48.9029 43.1003 48.8359 43.0544 48.7635L43.6538 48.4365C43.689 48.5143 43.7241 48.5866 43.7565 48.6563C43.7889 48.726 43.8267 48.7984 43.8672 48.8707L45.139 51.1678C45.1822 51.2455 45.2228 51.3152 45.266 51.3822C45.3092 51.4492 45.3524 51.5189 45.401 51.5913L44.8015 51.9183C44.7637 51.8379 44.7286 51.7628 44.6962 51.6904C44.6638 51.6181 44.626 51.5457 44.5828 51.468L44.0157 50.4441L42.8356 51.0874L43.4027 52.1112C43.4459 52.189 43.4864 52.2587 43.5296 52.3257C43.5728 52.3927 43.6187 52.4624 43.6646 52.5347L43.0787 52.8537C43.0409 52.7733 43.0058 52.6982 42.9734 52.6285C42.941 52.5562 42.9031 52.4838 42.8599 52.4061L41.5881 50.109C41.5476 50.034 41.5071 49.967 41.4639 49.9C41.4234 49.8357 41.3774 49.7686 41.3315 49.6963L41.9175 49.3773C41.9526 49.455 41.985 49.5274 42.0201 49.5971C42.0525 49.6668 42.0903 49.7392 42.1308 49.8115L42.598 50.6531L43.7781 50.0099V50.0179Z" fill="#1D1D1B"/>
<path d="M48.0176 49.8169C47.9339 49.7418 47.861 49.6775 47.7962 49.6239C47.7314 49.573 47.6531 49.5113 47.5586 49.4443L47.2291 49.2111L46.1922 49.9455L46.3137 50.3235C46.3515 50.4334 46.3812 50.5245 46.4082 50.6049C46.4352 50.6853 46.4676 50.7764 46.5108 50.881L45.9384 51.2857C45.9168 51.1678 45.8952 51.0659 45.8736 50.9828C45.852 50.8997 45.8249 50.8032 45.7925 50.6907L44.8906 47.5976L45.4874 47.1768L48.1148 49.0503C48.2094 49.1173 48.2904 49.1763 48.3633 49.2245C48.4335 49.2728 48.5226 49.3264 48.6252 49.388L48.0203 49.8169H48.0176ZM46.8214 48.8841L45.8844 48.1631C45.8087 48.1042 45.7412 48.0505 45.6791 47.9969C45.617 47.946 45.5603 47.8978 45.5144 47.8549C45.536 47.9272 45.5603 48.0023 45.5873 48.0827C45.6116 48.1631 45.6386 48.2435 45.6656 48.3239L46.0275 49.4443L46.8214 48.8841Z" fill="#1D1D1B"/>
<path d="M47.0133 46.6327C46.9566 46.5684 46.9026 46.5095 46.8486 46.4558C46.7946 46.4022 46.7352 46.3459 46.6758 46.287L47.1861 45.8447C47.2375 45.9117 47.2861 45.9761 47.332 46.0377C47.3779 46.0994 47.4292 46.161 47.4859 46.2253L49.2249 48.2007L49.8919 47.6218C49.9648 47.5575 50.0323 47.4958 50.0971 47.4395C50.1592 47.3806 50.224 47.3189 50.2916 47.2519L50.5832 47.7022C50.5076 47.7585 50.4374 47.8148 50.3699 47.8684C50.3024 47.922 50.2321 47.9809 50.1592 48.0453L49.0548 49.0022C49.0062 48.9378 48.9603 48.8735 48.9171 48.8118C48.8739 48.7502 48.8253 48.6886 48.7713 48.6269L47.016 46.6354L47.0133 46.6327Z" fill="#1D1D1B"/>
<path d="M48.8548 44.9872C48.7927 44.9282 48.7333 44.8746 48.6739 44.8264C48.6145 44.7781 48.5524 44.7272 48.4849 44.6736L48.952 44.1885C49.0087 44.2501 49.0627 44.3118 49.1167 44.3681C49.1681 44.4243 49.2248 44.4806 49.2869 44.5396L51.1987 46.3515L51.809 45.7163C51.8765 45.6466 51.9386 45.5796 51.9953 45.5152C52.052 45.4509 52.1114 45.3839 52.1708 45.3115L52.5003 45.735C52.4301 45.7994 52.3653 45.8583 52.3032 45.92C52.2411 45.9789 52.1762 46.0433 52.1087 46.1156L51.0961 47.169C51.0421 47.1073 50.9908 47.0484 50.9395 46.9894C50.8909 46.9331 50.8369 46.8742 50.7775 46.8179L48.8494 44.9899L48.8548 44.9872Z" fill="#1D1D1B"/>
<path d="M52.9861 45.1374C52.9159 45.0704 52.8484 45.0087 52.7836 44.9551C52.7188 44.9015 52.6513 44.8452 52.573 44.7836L50.5855 43.2317C50.5072 43.17 50.4316 43.1137 50.3614 43.0628C50.2912 43.0119 50.2155 42.961 50.1318 42.91L51.1472 41.6288C51.2066 41.5511 51.2606 41.4868 51.3038 41.4278C51.347 41.3715 51.3956 41.2992 51.4496 41.2188L51.8277 41.5913C51.7601 41.6556 51.7034 41.7173 51.6629 41.7682C51.6224 41.8218 51.5711 41.8862 51.509 41.9612L50.9176 42.7063L51.698 43.3148L52.1247 42.7733C52.1841 42.6983 52.2408 42.6259 52.2894 42.5616C52.338 42.4973 52.3893 42.4249 52.4379 42.3472L52.8565 42.6742C52.789 42.7439 52.7296 42.8109 52.6783 42.8698C52.627 42.9315 52.573 42.9985 52.5135 43.0762L52.0923 43.6096L52.9834 44.3065L53.5451 43.5962C53.618 43.5051 53.6828 43.4193 53.7422 43.3416C53.7989 43.2638 53.8637 43.1781 53.9312 43.0816L54.366 43.4193C54.2877 43.5077 54.2175 43.5882 54.1554 43.6632C54.0933 43.7383 54.0257 43.8213 53.9528 43.9125L52.9834 45.1347L52.9861 45.1374Z" fill="#1D1D1B"/>
<path d="M55.2575 40.4492C55.1279 40.3768 54.947 40.2803 54.7175 40.1543C54.4879 40.0283 54.3421 39.9506 54.2773 39.9158L53.2809 39.3047C53.208 39.2591 53.1377 39.2216 53.0702 39.184C53.0027 39.1492 52.9298 39.1117 52.8542 39.0715L53.1864 38.5381C53.2539 38.589 53.3214 38.6346 53.3835 38.6801C53.4456 38.7257 53.5158 38.7686 53.586 38.8142L55.7976 40.1677C55.884 40.2213 55.9623 40.2669 56.0325 40.3071C56.1054 40.3473 56.1837 40.3902 56.2702 40.4358L55.9137 41.0093L54.0046 40.8566C53.7237 40.8324 53.478 40.8083 53.2728 40.7842C53.0675 40.7574 52.9001 40.736 52.7759 40.7172C52.8893 40.7842 53.0594 40.8807 53.289 41.0093C53.5158 41.138 53.6535 41.2157 53.7048 41.2425L54.7877 41.9046C54.8606 41.9501 54.9308 41.9903 54.9983 42.0252C55.0658 42.0627 55.1387 42.0976 55.2143 42.1378L54.8768 42.6792C54.8093 42.6283 54.7418 42.5827 54.6796 42.5371C54.6175 42.4916 54.55 42.4487 54.4771 42.4031L52.2331 41.0281C52.1548 40.9799 52.0846 40.9397 52.0198 40.9021C51.955 40.8673 51.8794 40.8271 51.793 40.7815L52.1764 40.1677L54.1801 40.291C54.3718 40.3017 54.5635 40.3232 54.7526 40.35C54.9416 40.3768 55.109 40.4116 55.2602 40.4518L55.2575 40.4492Z" fill="#1D1D1B"/>
<path d="M57.7012 36.8873C57.7201 37.0884 57.7093 37.2894 57.6715 37.4931C57.6337 37.6968 57.5689 37.8978 57.4771 38.0988C57.3772 38.3159 57.2503 38.5009 57.099 38.659C56.9451 38.8172 56.7696 38.9297 56.5698 39.0021C56.3727 39.0772 56.1512 39.1066 55.9028 39.0906C55.6571 39.0718 55.3897 38.9994 55.1035 38.8681C54.8281 38.7421 54.6012 38.5947 54.4257 38.4205C54.2502 38.2463 54.1206 38.0586 54.0368 37.8549C53.9531 37.6539 53.9153 37.4448 53.9234 37.2251C53.9315 37.0053 53.9855 36.7882 54.0855 36.5764C54.1773 36.3754 54.2934 36.2012 54.4311 36.0537C54.5688 35.9063 54.7281 35.7884 54.9118 35.6973L55.1143 36.1368C54.9793 36.2146 54.8605 36.3057 54.7632 36.4102C54.666 36.5148 54.5877 36.6327 54.5283 36.764C54.4608 36.9141 54.4257 37.0562 54.4284 37.1956C54.4284 37.3349 54.4689 37.4663 54.5418 37.5923C54.6147 37.7182 54.7254 37.8388 54.8686 37.9541C55.0117 38.0694 55.1953 38.1766 55.4113 38.2757C55.6112 38.3669 55.7948 38.4312 55.9622 38.466C56.1296 38.5009 56.2808 38.5036 56.4159 38.4741C56.5536 38.4473 56.6751 38.3856 56.7858 38.2865C56.8938 38.19 56.991 38.0506 57.072 37.8764C57.1126 37.7879 57.1423 37.7021 57.1612 37.6164C57.1801 37.5306 57.1882 37.4422 57.1828 37.3537L56.3267 36.9677L56.0405 37.5869L55.5679 37.4395L56.1539 36.1663C56.2322 36.2172 56.3078 36.2601 56.3808 36.295C56.4537 36.3298 56.532 36.3674 56.6157 36.4049L57.6985 36.8954L57.7012 36.8873Z" fill="#1D1D1B"/>
<path d="M58.2926 36.0236C58.2035 35.9834 58.1198 35.9486 58.0415 35.9218C57.9631 35.895 57.8767 35.8628 57.7849 35.8333L55.3843 35.0507C55.2871 35.0212 55.198 34.9917 55.1143 34.9703C55.0306 34.9461 54.9415 34.9247 54.8442 34.9033L55.3573 33.354C55.387 33.2629 55.414 33.1825 55.4356 33.1128C55.4572 33.0431 55.4788 32.9627 55.5004 32.8662L55.9838 33.0887C55.9433 33.1744 55.9109 33.2468 55.8893 33.3111C55.8677 33.3755 55.8434 33.4532 55.811 33.5443L55.5139 34.4449L56.4563 34.7532L56.6724 34.0992C56.7021 34.0053 56.7291 33.9223 56.7534 33.8445C56.7777 33.7668 56.7993 33.6837 56.8209 33.5926L57.3286 33.7588C57.2881 33.8472 57.2556 33.9303 57.2286 34.0027C57.2016 34.075 57.1746 34.1608 57.1449 34.2519L56.9316 34.8952L58.0091 35.2463L58.2926 34.3886C58.3304 34.2761 58.3601 34.1742 58.3898 34.0831C58.4168 33.9893 58.4465 33.8874 58.4762 33.7722L59.0028 33.9437C58.9596 34.0536 58.9218 34.1528 58.8894 34.2439C58.857 34.335 58.8219 34.4369 58.7841 34.5468L58.2953 36.0236H58.2926Z" fill="#1D1D1B"/>
</g>
<defs>
<radialGradient id="paint0_radial_2219_2056" cx="0" cy="0" r="1" gradientUnits="userSpaceOnUse" gradientTransform="translate(44.7663 8.9496) scale(34.2648 34.0106)">
<stop stop-color="white"/>
<stop offset="1" stop-color="#EC670E"/>
</radialGradient>
<radialGradient id="paint1_radial_2219_2056" cx="0" cy="0" r="1" gradientUnits="userSpaceOnUse" gradientTransform="translate(32.5713 43.1536) scale(28.6534 28.4409)">
<stop stop-color="#00A88D"/>
<stop offset="1" stop-color="#A3D4C7"/>
</radialGradient>
<radialGradient id="paint2_radial_2219_2056" cx="0" cy="0" r="1" gradientUnits="userSpaceOnUse" gradientTransform="translate(44.7841 8.94735) scale(34.0612 33.8391)">
<stop stop-color="white"/>
<stop offset="1" stop-color="#EC670E"/>
</radialGradient>
<radialGradient id="paint3_radial_2219_2056" cx="0" cy="0" r="1" gradientUnits="userSpaceOnUse" gradientTransform="translate(44.7693 8.94671) scale(34.2179 33.9945)">
<stop stop-color="white"/>
<stop offset="1" stop-color="#EC670E"/>
</radialGradient>
<radialGradient id="paint4_radial_2219_2056" cx="0" cy="0" r="1" gradientUnits="userSpaceOnUse" gradientTransform="translate(44.7442 8.94444) scale(34.5192 34.2947)">
<stop stop-color="white"/>
<stop offset="1" stop-color="#EC670E"/>
</radialGradient>
<radialGradient id="paint5_radial_2219_2056" cx="0" cy="0" r="1" gradientUnits="userSpaceOnUse" gradientTransform="translate(44.7534 8.95146) scale(34.3894 34.3951)">
<stop stop-color="white"/>
<stop offset="1" stop-color="#EC670E"/>
</radialGradient>
<radialGradient id="paint6_radial_2219_2056" cx="0" cy="0" r="1" gradientUnits="userSpaceOnUse" gradientTransform="translate(44.7662 8.94674) scale(34.2647 34.0106)">
<stop stop-color="white"/>
<stop offset="1" stop-color="#EC670E"/>
</radialGradient>
<radialGradient id="paint7_radial_2219_2056" cx="0" cy="0" r="1" gradientUnits="userSpaceOnUse" gradientTransform="translate(44.7514 8.93062) scale(34.4016 34.4014)">
<stop stop-color="white"/>
<stop offset="1" stop-color="#EC670E"/>
</radialGradient>
<radialGradient id="paint8_radial_2219_2056" cx="0" cy="0" r="1" gradientUnits="userSpaceOnUse" gradientTransform="translate(44.7622 8.9521) scale(34.2801 34.0562)">
<stop stop-color="white"/>
<stop offset="1" stop-color="#EC670E"/>
</radialGradient>
<radialGradient id="paint9_radial_2219_2056" cx="0" cy="0" r="1" gradientUnits="userSpaceOnUse" gradientTransform="translate(44.769 8.94698) scale(34.2702 34.016)">
<stop stop-color="white"/>
<stop offset="1" stop-color="#EC670E"/>
</radialGradient>
<radialGradient id="paint10_radial_2219_2056" cx="0" cy="0" r="1" gradientUnits="userSpaceOnUse" gradientTransform="translate(44.769 8.94991) scale(34.2675 34.0133)">
<stop stop-color="white"/>
<stop offset="1" stop-color="#EC670E"/>
</radialGradient>
<radialGradient id="paint11_radial_2219_2056" cx="0" cy="0" r="1" gradientUnits="userSpaceOnUse" gradientTransform="translate(44.7688 8.94679) scale(34.254 33.9999)">
<stop stop-color="white"/>
<stop offset="1" stop-color="#EC670E"/>
</radialGradient>
<radialGradient id="paint12_radial_2219_2056" cx="0" cy="0" r="1" gradientUnits="userSpaceOnUse" gradientTransform="translate(44.7663 8.95463) scale(34.2594 34.0053)">
<stop stop-color="white"/>
<stop offset="1" stop-color="#EC670E"/>
</radialGradient>
<clipPath id="clip0_2219_2056">
<rect width="59" height="56" fill="white"/>
</clipPath>
</defs>
</svg>
